<svg xmlns="http://www.w3.org/2000/svg" xmlns:xlink="http://www.w3.org/1999/xlink" viewBox="0 0 1500 500"><defs><linearGradient id="a" y1="250" x2="1500" y2="250" gradientUnits="userSpaceOnUse"><stop offset="0" stop-color="#04adbf"/><stop offset="1" stop-color="#72f29f"/></linearGradient></defs><g style="isolation:isolate"><rect width="1500" height="500" fill="url(#a)"/><rect x="302.43" y="59.48" width="27.51" height="27.54" fill="#ffe529"/><rect x="302.43" y="94.89" width="27.51" height="27.54" fill="#ffe529"/><rect x="302.43" y="130.3" width="27.51" height="27.54" fill="#ffe529"/><rect x="267.15" y="130.3" width="27.51" height="27.54" fill="#ffe529"/><rect x="302.43" y="165.71" width="27.51" height="27.54" fill="#ffe529"/><rect x="302.43" y="201.12" width="27.51" height="27.54" fill="#ffe529"/><rect x="267.06" y="59.48" width="27.51" height="27.54" fill="#ffe529"/><rect x="267.06" y="94.98" width="27.51" height="27.54" fill="#ffe529"/><rect x="267.06" y="165.71" width="27.51" height="27.54" fill="#ffe529"/><rect x="267.06" y="201.12" width="27.51" height="27.54" fill="#ffe529"/><rect x="231.69" y="59.48" width="27.51" height="27.54" fill="#ffe529"/><rect x="231.69" y="94.98" width="27.51" height="27.54" fill="#ffe529"/><rect x="231.69" y="165.71" width="27.51" height="27.54" fill="#ffe529"/><rect x="196.32" y="94.98" width="27.51" height="27.54" fill="#ffe529"/><path d="M337.81,24.07V51.61h27.51v7.87H337.81V87h27.51v7.87H337.81v27.54h27.51v7.87H337.81v27.54h27.51v7.87H337.81v27.54h27.51v7.87H337.81v27.54h27.51v7.87H337.81v27.54H1476.32v-240ZM962.38,228.56H923.32l-45.87-83.95v83.95H836.61V57.81h39.26l45.67,83.75V57.81h40.84Zm151.62-68a89.8,89.8,0,0,1-3.75,25.16,55.3,55.3,0,0,1-13,22.39,65.06,65.06,0,0,1-21.41,15.39,64.38,64.38,0,0,1-25.55,5.23H1050a63.42,63.42,0,0,1-25.35-5.23,69.31,69.31,0,0,1-21.71-15.19,57.47,57.47,0,0,1-12.72-21.8,95.4,95.4,0,0,1-4-25.95V120.74a61.28,61.28,0,0,1,4.43-22.39,62,62,0,0,1,12.33-20.12,68.78,68.78,0,0,1,21.61-15.1A62,62,0,0,1,1050,57.81h.29a62.77,62.77,0,0,1,25.55,5.32,65.79,65.79,0,0,1,21.41,15.1A58.66,58.66,0,0,1,1109.66,98a66.84,66.84,0,0,1,4.34,22.79Zm62,68h-38.57V57.81H1176Zm134.45-39.75a34.18,34.18,0,0,1-4.64,15.48A41.83,41.83,0,0,1,1294,216.92a56.66,56.66,0,0,1-18,8.48,84.29,84.29,0,0,1-23.87,3.16,68.58,68.58,0,0,1-19.34-2.76,61.83,61.83,0,0,1-16.47-7.8,50.72,50.72,0,0,1-12.43-12.33,48.59,48.59,0,0,1-7.49-16.37l36.69-15.39c-.3.2.1,1.28,1.09,3.26a33.16,33.16,0,0,0,4.24,6.31,30.19,30.19,0,0,0,6.71,5.92,12.05,12.05,0,0,0,8.68,2,15.77,15.77,0,0,0,7.69-3.45c2.47-2,3.65-5.13,3.55-9.37a12.09,12.09,0,0,0-3.16-7.3,42.85,42.85,0,0,0-8.08-6.91c-7.8-5.23-15.1-9.76-21.71-13.71a114,114,0,0,1-17.46-12.23,52.49,52.49,0,0,1-11.73-14.5c-2.77-5.33-4.25-12-4.25-20.22A41,41,0,0,1,1203.27,84a44.34,44.34,0,0,1,12.13-14.21,53.72,53.72,0,0,1,17.46-8.68,78.68,78.68,0,0,1,20.42-3.25,63.83,63.83,0,0,1,22.2,3.55,54.25,54.25,0,0,1,16,9.07A42.52,42.52,0,0,1,1301.72,83a46.07,46.07,0,0,1,4.83,13.91l-33.74,13.22a43.06,43.06,0,0,0-2.07-5.53,22.16,22.16,0,0,0-3.84-5.82,21.73,21.73,0,0,0-5.73-4.43,15.77,15.77,0,0,0-7.69-1.88,13.89,13.89,0,0,0-8.38,2.86c-2.47,2-3.75,4.83-3.75,8.68a10.42,10.42,0,0,0,3.55,7.7,135.11,135.11,0,0,0,11.14,8.78c7,4,13.81,8,20.33,11.93a90.8,90.8,0,0,1,17.26,13.52,61.4,61.4,0,0,1,12.23,17.16c3.06,6.31,4.54,13.81,4.54,22.59Zm131.49-92.43H1375.6V123.9h48.63v38.57H1375.6V190h66.29v38.57H1337V57.81h104.86Z" fill="#ffe529"/><rect x="302.43" y="236.53" width="27.51" height="27.54" fill="#ffe529"/><rect x="1006.66" y="361.75" width="27.51" height="27.54" fill="#ffe529"/><g opacity="0.8" style="mix-blend-mode:color-burn"><path d="M1125.33,280.2q0,11.32-4.34,19.54t-10,12.37a28.92,28.92,0,0,1,11.24,5.95,34.49,34.49,0,0,1,7.46,9.16,41.71,41.71,0,0,1,4.15,10.77,46.69,46.69,0,0,1,1.32,10.57,49.66,49.66,0,0,1-2.45,15.58,37.24,37.24,0,0,1-7.46,13.13,35.89,35.89,0,0,1-12.37,9,41.71,41.71,0,0,1-17.19,3.3h-48.15v-145h35.88a58.47,58.47,0,0,1,18.69,3,36.4,36.4,0,0,1,13,7.65,31,31,0,0,1,7.65,11.23A37,37,0,0,1,1125.33,280.2ZM1101.92,311a11.66,11.66,0,0,0,6.42-2.27,22.61,22.61,0,0,0,6.13-6.32,37.65,37.65,0,0,0,4.54-9.73,41.26,41.26,0,0,0,1.79-12.46,31.51,31.51,0,0,0-2.27-12,27.5,27.5,0,0,0-6.79-9.82,32.13,32.13,0,0,0-11.62-6.71,54.41,54.41,0,0,0-16.71-2.64h-31.35V385h43.62a36.64,36.64,0,0,0,15.2-2.93,31.78,31.78,0,0,0,11-7.93,32.71,32.71,0,0,0,6.61-11.61,44.76,44.76,0,0,0,2.17-14,42.75,42.75,0,0,0-1.51-10.86A33.83,33.83,0,0,0,1124.2,327a28.62,28.62,0,0,0-8.88-8.21,25.53,25.53,0,0,0-13.4-3.31Z" fill="#f0f"/><path d="M1215.91,352.34h-24.17l-12.47,37h-40.6l42.49-145h45.71l42.49,145h-40.61Zm47.4,32.48q-10-34.56-20-68t-20-68h-38.53l-40,136h31.54l12.47-37h30.4l12.84,37Z" fill="#f0f"/><path d="M1333.44,389.35l-15.48-37v37H1281.7v-145h45.13q12.66,0,21.16,3.87a35.67,35.67,0,0,1,13.59,10.38,40.29,40.29,0,0,1,7.27,15.11,73.26,73.26,0,0,1,2.18,18,44,44,0,0,1-2.65,15.67,48.13,48.13,0,0,1-6.51,12.09,45.3,45.3,0,0,1-8.12,8.4,31.67,31.67,0,0,1-7.65,4.63q7,13.59,14.63,28.42t14.45,28.42Zm5.67-60.62c1.63,0,4-.81,7.08-2.45a37,37,0,0,0,9.16-7.18,44.33,44.33,0,0,0,7.84-11.61,36.1,36.1,0,0,0,3.3-15.77,69.09,69.09,0,0,0-1.89-16.43,35.07,35.07,0,0,0-6.51-13.6,32.62,32.62,0,0,0-12.28-9.35q-7.65-3.5-19.16-3.49h-40.42v136h27.2q0-10.95.18-22.28t.19-22.1l4-.75,18.88,45.13h31Z" fill="#f0f"/></g></g></svg>